<?xml version="1.0" standalone="no"?>
<!DOCTYPE svg PUBLIC "-//W3C//DTD SVG 20010904//EN"
 "http://www.w3.org/TR/2001/REC-SVG-20010904/DTD/svg10.dtd">
<svg version="1.0" xmlns="http://www.w3.org/2000/svg"
 width="2104.000000pt" height="2088.000000pt" viewBox="0 0 2104.000000 2088.000000"
 preserveAspectRatio="xMidYMid meet">

<g transform="translate(0.000000,2088.000000) scale(0.100000,-0.100000)"
fill="#000000" stroke="none">
<path d="M10059 20856 c-2 -2 -67 -7 -144 -10 -77 -4 -158 -9 -180 -11 -22 -2
-74 -7 -115 -10 -154 -12 -200 -17 -390 -41 -1614 -202 -3104 -750 -4455
-1639 -927 -609 -1786 -1399 -2460 -2260 -33 -42 -82 -104 -109 -138 -46 -58
-71 -93 -219 -300 -56 -78 -244 -359 -319 -477 -217 -340 -500 -870 -683
-1280 -471 -1055 -764 -2178 -865 -3315 -5 -66 -12 -140 -15 -165 -28 -289
-28 -1218 0 -1545 2 -27 7 -84 10 -125 3 -41 10 -113 15 -160 5 -47 12 -114
15 -150 4 -36 8 -72 10 -80 2 -8 6 -44 10 -80 4 -36 8 -72 10 -80 3 -17 11
-73 20 -135 6 -42 10 -66 25 -155 5 -30 12 -71 15 -90 3 -19 26 -134 50 -255
355 -1768 1177 -3429 2374 -4795 241 -276 569 -611 811 -830 142 -128 182
-164 219 -196 19 -16 39 -34 45 -39 21 -20 282 -231 351 -285 39 -30 72 -57
75 -60 21 -23 430 -314 600 -426 74 -49 137 -91 140 -94 3 -3 16 -11 30 -19
14 -8 108 -65 210 -126 1107 -669 2364 -1133 3640 -1344 203 -34 516 -77 625
-86 39 -3 81 -8 95 -10 14 -2 66 -7 115 -10 50 -4 106 -8 125 -10 249 -28
1277 -27 1545 0 22 2 76 7 120 10 95 7 155 13 210 20 22 2 67 7 100 11 318 31
884 133 1285 230 1009 247 2009 662 2920 1212 273 164 764 503 973 669 40 32
92 73 117 92 25 19 47 37 50 40 3 3 37 31 75 62 39 31 81 66 95 79 14 12 47
40 75 63 368 308 881 831 1235 1256 998 1201 1720 2627 2094 4136 46 186 122
533 140 640 29 168 46 277 51 310 3 22 7 54 10 70 7 49 14 95 25 185 6 47 12
99 15 115 2 17 7 59 10 95 3 36 8 79 10 95 2 17 7 73 10 125 4 52 9 106 10
120 27 222 27 1396 1 1538 -2 9 -7 62 -11 117 -3 55 -8 114 -10 130 -3 17 -12
95 -20 175 -107 971 -371 1974 -765 2901 -95 223 -354 754 -460 944 -187 334
-399 673 -593 950 -85 120 -327 446 -342 460 -7 6 -27 30 -46 55 -19 25 -41
54 -50 65 -41 50 -184 221 -189 225 -3 3 -27 32 -55 65 -27 33 -57 67 -65 76
-8 8 -55 60 -105 115 -93 103 -505 518 -610 614 -746 684 -1535 1229 -2430
1678 -996 499 -2062 831 -3180 991 -202 29 -327 43 -570 66 -22 2 -87 7 -145
10 -58 4 -121 9 -140 12 -44 6 -1065 15 -1071 9z m4236 -1090 c17 -3 71 -10
120 -16 95 -12 269 -49 262 -56 -2 -3 -64 -20 -138 -38 -888 -224 -1690 -750
-2280 -1497 -497 -628 -817 -1394 -898 -2149 -20 -181 -23 -241 -23 -426 0
-145 3 -189 13 -198 8 -7 73 -28 144 -46 288 -72 671 -195 970 -313 2024 -794
3171 -2227 3395 -4242 28 -250 37 -411 39 -695 3 -486 -49 -905 -170 -1379
-203 -795 -596 -1577 -1104 -2196 -640 -781 -1441 -1350 -2360 -1679 -862
-307 -1855 -400 -2735 -255 -856 141 -1713 510 -2425 1042 -101 76 -319 249
-335 267 -3 3 -48 43 -100 89 -408 362 -848 894 -1130 1366 -29 50 -65 108
-79 130 -49 79 -269 523 -331 670 -245 585 -408 1202 -484 1840 -9 72 -18 164
-21 205 -4 41 -8 84 -10 95 -18 89 -25 686 -12 965 79 1670 769 3444 1900
4883 357 453 794 909 1197 1247 952 798 2022 1408 3220 1838 883 316 1848 515
2660 548 85 4 157 8 159 10 5 5 523 -5 556 -10z"/>
</g>
</svg>
